# Blender v2.82 (sub 7) OBJ File: 'model2.blend'
# www.blender.org
mtllib model2_track2.mtl
v 0.113348 0.003862 0.051975
v 0.114475 0.003862 0.051975
v 0.113348 0.003862 0.041808
v 0.114475 0.003862 0.041808
v 0.110301 0.003862 0.063965
v 0.110301 0.003862 0.057919
v 0.111442 0.003862 0.063965
v 0.111442 0.003862 0.057919
v 0.110268 0.003862 0.057956
v 0.113301 0.003862 0.051881
v 0.111510 0.003862 0.057976
v 0.114543 0.003862 0.051901
v 0.106871 0.003862 0.041820
v 0.106871 0.003862 0.040806
v 0.114490 0.003862 0.041820
v 0.114490 0.003862 0.040806
v 0.106852 0.003862 0.036829
v 0.106852 0.003862 0.035819
v 0.112817 0.003862 0.036829
v 0.112817 0.003862 0.035819
v 0.106858 0.003862 0.041810
v 0.106858 0.003862 0.035893
v 0.108014 0.003862 0.041810
v 0.108014 0.003862 0.035893
v 0.111848 0.003862 0.036840
v 0.111848 0.003862 0.031174
v 0.112837 0.003862 0.036840
v 0.112837 0.003862 0.031174
v 0.111840 0.003862 0.031251
v 0.115190 0.003862 0.027325
v 0.112716 0.003862 0.031771
v 0.116067 0.003862 0.027845
vt 0.000000 0.000000
vt 1.000000 0.000000
vt 1.000000 1.000000
vt 0.000000 1.000000
vt 0.000000 0.000000
vt 1.000000 0.000000
vt 1.000000 1.000000
vt 0.000000 1.000000
vt 0.000000 0.000000
vt 1.000000 0.000000
vt 1.000000 1.000000
vt 0.000000 1.000000
vt 0.000000 0.000000
vt 1.000000 0.000000
vt 1.000000 1.000000
vt 0.000000 1.000000
vt 0.000000 0.000000
vt 1.000000 0.000000
vt 1.000000 1.000000
vt 0.000000 1.000000
vt 0.000000 0.000000
vt 1.000000 0.000000
vt 1.000000 1.000000
vt 0.000000 1.000000
vt 0.000000 0.000000
vt 1.000000 0.000000
vt 1.000000 1.000000
vt 0.000000 1.000000
vt 0.000000 0.000000
vt 1.000000 0.000000
vt 1.000000 1.000000
vt 0.000000 1.000000
vn 0.0000 1.0000 0.0000
usemtl Tracks
s off
f 1/1/1 2/2/1 4/3/1 3/4/1
f 5/5/1 7/6/1 8/7/1 6/8/1
f 9/9/1 11/10/1 12/11/1 10/12/1
f 13/13/1 15/14/1 16/15/1 14/16/1
f 17/17/1 19/18/1 20/19/1 18/20/1
f 21/21/1 23/22/1 24/23/1 22/24/1
f 25/25/1 27/26/1 28/27/1 26/28/1
f 29/29/1 31/30/1 32/31/1 30/32/1
